<svg width="20" height="19" viewBox="0 0 20 19" fill="none" xmlns="http://www.w3.org/2000/svg">
<g id="Vector">
<path id="Vector_2" d="M19.5613 3.70464C19.1822 3.24136 18.5924 2.95978 17.9821 2.95978H5.15889L4.75914 1.47007C4.52718 0.604071 3.72769 0 2.80069 0H0.653099C0.295301 0 0 0.281577 0 0.624528C0 0.966674 0.294459 1.24906 0.653099 1.24906H2.80069C3.11654 1.24906 3.39045 1.45041 3.47434 1.75245L6.04306 11.5388C6.27502 12.4048 7.07451 13.0089 8.00152 13.0089H16.4028C17.3289 13.0089 18.1507 12.4048 18.3612 11.5388L19.9405 5.3368C20.0877 4.77206 19.9619 4.16799 19.5613 3.7047L19.5613 3.70464ZM18.6566 5.05357L17.0773 11.2556C16.9934 11.5576 16.7195 11.759 16.4036 11.759H8.00154C7.68569 11.759 7.41178 11.5576 7.32789 11.2556L5.49611 4.22861H17.983C18.1936 4.22861 18.4042 4.32929 18.5308 4.49054C18.6567 4.651 18.7192 4.85236 18.6567 5.05371L18.6566 5.05357Z" fill="#43464E"/>
<path id="Vector_3" d="M8.18949 13.8313C6.98942 13.8313 6 14.7775 6 15.925C6 17.0725 6.9895 18.0187 8.18949 18.0187C9.38956 18.0195 10.379 17.0732 10.379 15.9256C10.379 14.7779 9.38948 13.8311 8.18949 13.8311V13.8313ZM8.18949 16.7509C7.70502 16.7509 7.32582 16.3883 7.32582 15.925C7.32582 15.4618 7.70502 15.0992 8.18949 15.0992C8.67397 15.0992 9.05316 15.4618 9.05316 15.925C9.05234 16.3687 8.65259 16.7509 8.18949 16.7509Z" fill="#43464E"/>
<path id="Vector_4" d="M15.6875 13.8125C14.4875 13.8125 13.498 14.7587 13.498 15.9062C13.498 17.0537 14.4876 17.9999 15.6875 17.9999C16.8875 17.9999 17.877 17.0537 17.877 15.9062C17.8565 14.7594 16.8875 13.8125 15.6875 13.8125ZM15.6875 16.7322C15.2031 16.7322 14.8239 16.3696 14.8239 15.9063C14.8239 15.443 15.2031 15.0804 15.6875 15.0804C16.172 15.0804 16.5512 15.443 16.5512 15.9063C16.5512 16.3499 16.1506 16.7322 15.6875 16.7322Z" fill="#43464E"/>
</g>
</svg>
