<svg width="24" height="22" viewBox="0 0 24 22" fill="none" xmlns="http://www.w3.org/2000/svg">
<g id="Vector">
<path id="Vector_2" d="M23.4736 4.44557C23.0186 3.88963 22.3109 3.55174 21.5785 3.55174H6.19066L5.71097 1.76408C5.43262 0.724885 4.47323 0 3.36082 0H0.783719C0.354361 0 0 0.337893 0 0.749434C0 1.16001 0.353351 1.49887 0.783719 1.49887H3.36082C3.73985 1.49887 4.06854 1.7405 4.1692 2.10294L7.25167 13.8466C7.53003 14.8857 8.48941 15.6106 9.60182 15.6106H19.6833C20.7947 15.6106 21.7808 14.8857 22.0335 13.8466L23.9286 6.40416C24.1053 5.72647 23.9543 5.00158 23.4736 4.44564L23.4736 4.44557ZM22.3879 6.06429L20.4928 13.5067C20.3921 13.8691 20.0634 14.1107 19.6844 14.1107H9.60185C9.22282 14.1107 8.89413 13.8691 8.79347 13.5067L6.59533 5.07434H21.5796C21.8323 5.07434 22.085 5.19515 22.237 5.38865C22.388 5.5812 22.463 5.82283 22.388 6.06446L22.3879 6.06429Z" fill="white"/>
<path id="Vector_3" d="M10.1332 16.5749C8.69316 16.5749 7.50586 17.7104 7.50586 19.0874C7.50586 20.4644 8.69326 21.5998 10.1332 21.5998C11.5733 21.6008 12.7606 20.4653 12.7606 19.0881C12.7606 17.7109 11.5732 16.5747 10.1332 16.5747V16.5749ZM10.1332 20.0786C9.55188 20.0786 9.09685 19.6434 9.09685 19.0875C9.09685 18.5316 9.55188 18.0964 10.1332 18.0964C10.7146 18.0964 11.1696 18.5316 11.1696 19.0875C11.1687 19.6198 10.689 20.0786 10.1332 20.0786Z" fill="white"/>
<path id="Vector_4" d="M18.8251 16.5752C17.3851 16.5752 16.1978 17.7107 16.1978 19.0876C16.1978 20.4646 17.3852 21.6001 18.8251 21.6001C20.2651 21.6001 21.4525 20.4646 21.4525 19.0876C21.4279 17.7115 20.2651 16.5752 18.8251 16.5752ZM18.8251 20.0788C18.2438 20.0788 17.7887 19.6437 17.7887 19.0877C17.7887 18.5318 18.2438 18.0967 18.8251 18.0967C19.4065 18.0967 19.8615 18.5318 19.8615 19.0877C19.8615 19.6201 19.3809 20.0788 18.8251 20.0788Z" fill="white"/>
</g>
</svg>
